<svg width="390" height="557" viewBox="0 0 390 557" fill="none" xmlns="http://www.w3.org/2000/svg">
<mask id="mask0_419_3947" style="mask-type:alpha" maskUnits="userSpaceOnUse" x="-111" y="116" width="345" height="176">
<path d="M-110 291V118C-51.1341 121.094 -34.2379 190.183 40.9276 202.114C116.093 214.045 160.817 241.132 230.631 291H-110Z" fill="#D9D9D9" stroke="black" stroke-width="2"/>
</mask>
<g mask="url(#mask0_419_3947)">
<rect x="-126.704" y="-17.417" width="393.724" height="441.448" fill="#4A84DB"/>
<path d="M-162.095 -122.871L-161.817 -103.072C-159.806 40.2768 -4.76665 128.925 119.792 57.9465L137.692 47.7461C254.769 -18.9692 400.375 64.994 401.277 199.742L401.593 246.866C402.246 344.362 498.428 412.416 590.585 380.588V380.588" stroke="#F1EFE4" stroke-width="3"/>
<path d="M-168.665 -111.489L-168.387 -91.6892C-166.376 51.6592 -11.3365 140.308 113.222 69.3289L131.123 59.1284C248.199 -7.58688 393.805 76.3763 394.708 211.125L395.023 258.248C395.676 355.744 491.859 423.798 584.015 391.97V391.97" stroke="#F1EFE4" stroke-width="3"/>
<path d="M-175.236 -100.107L-174.959 -80.3074C-172.948 63.041 -17.9082 151.689 106.65 80.7107L124.551 70.5102C241.628 3.79496 387.233 87.7582 388.136 222.506L388.451 269.63C389.105 367.126 485.287 435.18 577.443 403.352V403.352" stroke="#F1EFE4" stroke-width="3"/>
<path d="M-181.809 -88.7254L-181.531 -68.926C-179.52 74.4223 -24.4805 163.071 100.078 92.092L117.979 81.8916C235.055 15.1763 380.661 99.1395 381.564 233.888L381.879 281.011C382.532 378.507 478.715 446.561 570.871 414.734V414.734" stroke="#F1EFE4" stroke-width="3"/>
<path d="M-188.38 -77.3426L-188.102 -57.5432C-186.091 85.8051 -31.0518 174.453 93.5067 103.475L111.407 93.2744C228.484 26.5591 374.089 110.522 374.992 245.271L375.308 292.394C375.961 389.89 472.143 457.944 564.3 426.116V426.116" stroke="#F1EFE4" stroke-width="3"/>
<path d="M-194.952 -65.9608L-194.675 -46.1614C-192.664 97.187 -37.6241 185.835 86.9345 114.857L104.835 104.656C221.912 37.941 367.517 121.904 368.42 256.652L368.736 303.776C369.389 401.272 465.571 469.326 557.728 437.498V437.498" stroke="#F1EFE4" stroke-width="3"/>
<path d="M-201.524 -54.5784L-201.246 -34.7791C-199.236 108.569 -44.1958 197.218 80.3627 126.239L98.2632 116.039C215.34 49.3233 360.945 133.286 361.848 268.035L362.164 315.158C362.817 412.654 458.999 480.708 551.156 448.881V448.881" stroke="#F1EFE4" stroke-width="3"/>
<path d="M-208.094 -43.1961L-207.835 -24.7396C-205.816 119.212 -50.1233 208.234 74.9596 136.956V136.956L91.6935 127.421C208.77 60.7056 354.376 144.669 355.278 279.417L355.594 326.541C356.247 424.036 452.429 492.091 544.586 460.263V460.263" stroke="#F1EFE4" stroke-width="3"/>
<path d="M-214.667 -31.8143L-214.389 -12.0149C-212.379 131.333 -57.3389 219.982 67.2196 149.003L85.1202 138.803C202.197 72.0874 347.802 156.051 348.705 290.799L349.021 337.923C349.674 435.418 445.856 503.472 538.013 471.645V471.645" stroke="#F1EFE4" stroke-width="3"/>
<path d="M-221.237 -20.4329L-220.959 -0.633547C-218.948 142.715 -63.9087 231.363 60.6498 160.385L78.5503 150.184C195.627 83.4688 341.233 167.432 342.135 302.18L342.451 349.304C343.104 446.8 439.286 514.854 531.443 483.026V483.026" stroke="#F1EFE4" stroke-width="3"/>
<path d="M-227.809 -9.0506L-227.531 10.7488C-225.521 154.097 -70.481 242.745 54.0775 171.767L71.9781 161.566C189.055 94.8511 334.66 178.814 335.563 313.563L335.879 360.686C336.532 458.182 432.714 526.236 524.871 494.408V494.408" stroke="#F1EFE4" stroke-width="3"/>
<path d="M-234.381 2.33123L-234.103 22.1306C-232.092 165.479 -77.0523 254.127 47.5062 183.149L65.4068 172.948C182.484 106.233 328.089 190.196 328.992 324.944L329.307 372.068C329.961 469.564 426.143 537.618 518.299 505.79V505.79" stroke="#F1EFE4" stroke-width="3"/>
<path d="M-240.949 13.7136L-240.672 33.5129C-238.661 176.861 -83.6211 265.51 40.9374 194.531L58.8379 184.331C175.915 117.615 321.52 201.578 322.423 336.327L322.739 383.45C323.392 480.946 419.574 549 511.73 517.173V517.173" stroke="#F1EFE4" stroke-width="3"/>
<path d="M-247.522 25.0954L-247.244 44.8948C-245.234 188.243 -90.1939 276.891 34.3646 205.913L52.2652 195.712C169.342 128.997 314.947 212.96 315.85 347.709L316.166 394.832C316.819 492.328 413.001 560.382 505.158 528.554V528.554" stroke="#F1EFE4" stroke-width="3"/>
<path d="M-254.092 36.4772L-253.815 56.2766C-251.804 199.625 -96.7642 288.273 27.7943 217.295L45.6949 207.094C162.772 140.379 308.377 224.342 309.28 359.09L309.596 406.214C310.249 503.71 406.431 571.764 498.587 539.936V539.936" stroke="#F1EFE4" stroke-width="3"/>
<path d="M-260.51 47.59L-260.232 67.3894C-258.221 210.738 -103.182 299.386 21.3768 228.407L39.2774 218.207C156.354 151.492 301.96 235.455 302.862 370.203L303.178 417.327C303.831 514.822 400.013 582.877 492.17 551.049V551.049" stroke="#F1EFE4" stroke-width="3"/>
<path d="M-266.925 58.7023L-266.647 78.5017C-264.636 221.85 -109.597 310.498 14.9618 239.52L32.8624 229.319C149.939 162.604 295.545 246.567 296.447 381.316L296.763 428.439C297.416 525.935 393.598 593.989 485.755 562.161V562.161" stroke="#F1EFE4" stroke-width="3"/>
<path d="M-273.341 69.8156L-273.064 89.615C-271.053 232.963 -116.013 321.612 8.54531 250.633L26.4459 240.433C143.523 173.717 289.128 257.681 290.031 392.429L290.346 439.552C291 537.048 387.182 605.102 479.338 573.275V573.275" stroke="#F1EFE4" stroke-width="3"/>
<path d="M-279.757 80.9284L-279.479 100.728C-277.468 244.076 -122.429 332.724 2.12978 261.746L20.0303 251.545C137.107 184.83 282.713 268.793 283.615 403.542L283.931 450.665C284.584 548.161 380.766 616.215 472.923 584.387V584.387" stroke="#F1EFE4" stroke-width="3"/>
<path d="M-286.173 92.0402L-285.895 111.84C-283.884 255.188 -128.845 343.836 -4.28624 272.858L13.6143 262.657C130.691 195.942 276.297 279.905 277.199 414.653L277.515 461.777C278.168 559.273 374.35 627.327 466.507 595.499V595.499" stroke="#F1EFE4" stroke-width="3"/>
<path d="M-292.589 103.153L-292.311 122.953C-290.3 266.301 -135.26 354.95 -10.7018 283.971L7.19879 273.77C124.276 207.055 269.881 291.018 270.784 425.767L271.099 472.89C271.753 570.386 367.935 638.44 460.091 606.613V606.613" stroke="#F1EFE4" stroke-width="3"/>
<path d="M-299.006 114.267L-298.728 134.066C-296.717 277.415 -141.678 366.063 -17.1192 295.084L0.781306 284.884C117.858 218.168 263.464 302.132 264.366 436.88L264.682 484.004C265.335 581.499 361.517 649.553 453.674 617.726V617.726" stroke="#F1EFE4" stroke-width="3"/>
<path d="M-305.42 125.378L-305.142 145.177C-303.132 288.526 -148.092 377.174 -23.5333 306.196L-5.63276 295.995C111.444 229.28 257.049 313.243 257.952 447.991L258.268 495.115C258.921 592.611 355.103 660.665 447.26 628.837V628.837" stroke="#F1EFE4" stroke-width="3"/>
<path d="M-311.837 136.491L-311.559 156.291C-309.548 299.639 -154.508 388.287 -29.9498 317.309L-12.0493 307.108C105.028 240.393 250.633 324.356 251.536 459.105L251.851 506.228C252.505 603.724 348.687 671.778 440.843 639.95V639.95" stroke="#F1EFE4" stroke-width="3"/>
<path d="M-318.252 147.604L-317.974 167.403C-315.964 310.751 -160.924 399.4 -36.3653 328.421L-18.4648 318.221C98.6121 251.505 244.217 335.469 245.12 470.217L245.436 517.341C246.089 614.836 342.271 682.89 434.428 651.063V651.063" stroke="#F1EFE4" stroke-width="3"/>
<path d="M-331.084 169.829L-330.806 189.628C-328.795 332.977 -173.755 421.625 -49.1969 350.646L-31.2963 340.446C85.7805 273.731 231.386 357.694 232.289 492.442L232.604 539.566C233.257 637.061 329.44 705.116 421.596 673.288V673.288" stroke="#F1EFE4" stroke-width="3"/>
<path d="M-337.5 180.942L-337.222 200.741C-335.212 344.089 -180.172 432.738 -55.6134 361.759L-37.7128 351.559C79.364 284.843 224.969 368.807 225.872 503.555L226.188 550.678C226.841 648.174 323.023 716.228 415.18 684.401V684.401" stroke="#F1EFE4" stroke-width="3"/>
<path d="M-324.67 158.716L-324.392 178.516C-322.381 321.864 -167.341 410.513 -42.7828 339.534L-24.8823 329.333C92.1946 262.618 237.8 346.581 238.703 481.33L239.018 528.453C239.672 625.949 335.854 694.003 428.01 662.176V662.176" stroke="#F1EFE4" stroke-width="3"/>
<path d="M-343.915 192.054L-343.637 211.853C-341.627 355.202 -186.587 443.85 -62.0284 372.871L-44.1279 362.671C72.949 295.956 218.554 379.919 219.457 514.667L219.773 561.791C220.426 659.286 316.608 727.341 408.765 695.513V695.513" stroke="#F1EFE4" stroke-width="3"/>
</g>
<mask id="mask1_419_3947" style="mask-type:alpha" maskUnits="userSpaceOnUse" x="-246" y="0" width="999" height="280">
<path d="M752 278.008H-245C-245 278.008 -130.463 251.721 83.5818 242.333C297.627 232.945 625.298 14.7312 752 2V278.008Z" fill="#D9D9D9" stroke="black" stroke-width="2"/>
</mask>
<g mask="url(#mask1_419_3947)">
<rect x="-365.165" y="-636.386" width="1276.76" height="1276.77" fill="black"/>
<path d="M-791.034 -811.023L-790.233 -756.328C-784.393 -357.289 -342.44 -115.167 19.3871 -312.782L70.9581 -340.948C411.026 -526.678 826.031 -297.322 828.653 77.8006L829.547 205.752C831.449 477.73 1105.67 664.714 1372.91 576.255V576.255" stroke="#F1EFE4" stroke-width="0.653416"/>
<path d="M-809.924 -779.657L-809.124 -724.963C-803.284 -325.923 -361.331 -83.8019 0.496483 -281.416L52.0675 -309.582C392.136 -495.313 807.14 -265.956 809.762 109.166L810.657 237.117C812.558 509.096 1086.78 696.079 1354.02 607.62V607.62" stroke="#F1EFE4" stroke-width="0.653416"/>
<path d="M-828.816 -748.295L-828.016 -693.601C-822.176 -294.562 -380.223 -52.4401 -18.3956 -250.055L33.1754 -278.22C373.244 -463.951 788.248 -234.594 790.87 140.528L791.765 268.479C793.666 540.458 1067.89 727.441 1335.13 638.982V638.982" stroke="#F1EFE4" stroke-width="0.653416"/>
<path d="M-847.71 -716.933L-846.91 -662.239C-841.07 -263.2 -399.117 -21.078 -37.2896 -218.692L14.2814 -246.858C354.349 -432.589 769.354 -203.232 771.976 171.89L772.871 299.841C774.772 571.82 1048.99 758.803 1316.23 670.344V670.344" stroke="#F1EFE4" stroke-width="0.653416"/>
<path d="M-866.601 -685.571L-865.8 -630.876C-859.96 -231.837 -418.007 10.2848 -56.1798 -187.33L-4.60878 -215.496C335.459 -401.226 750.464 -171.87 753.086 203.253L753.981 331.204C755.882 603.182 1030.1 790.166 1297.34 701.707V701.707" stroke="#F1EFE4" stroke-width="0.653416"/>
<path d="M-885.495 -654.206L-884.694 -599.511C-878.854 -200.472 -436.901 41.6493 -75.0738 -155.965L-23.5028 -184.131C316.565 -369.862 731.57 -140.505 734.192 234.617L735.087 362.568C736.988 634.547 1011.21 821.531 1278.45 733.071V733.071" stroke="#F1EFE4" stroke-width="0.653416"/>
<path d="M-904.392 -622.844L-903.591 -568.15C-897.751 -169.111 -455.798 73.0111 -93.9708 -124.603L-42.3998 -152.769C297.668 -338.5 712.673 -109.143 715.295 265.979L716.19 393.93C718.091 665.909 992.313 852.892 1259.55 764.433V764.433" stroke="#F1EFE4" stroke-width="0.653416"/>
<path d="M-923.277 -591.482L-922.477 -536.788C-916.637 -137.749 -474.684 104.373 -112.857 -93.2415L-61.2855 -121.407C278.783 -307.138 693.787 -77.7814 696.409 297.341L697.304 425.292C699.205 697.271 973.427 884.254 1240.67 795.795V795.795" stroke="#F1EFE4" stroke-width="0.653416"/>
<path d="M-942.181 -560.117L-941.381 -505.422C-935.54 -106.383 -493.588 135.739 -131.76 -61.8758L-80.1893 -90.0416C259.879 -275.772 674.884 -46.4157 677.506 328.707L678.4 456.658C680.301 728.636 954.523 915.62 1221.76 827.161V827.161" stroke="#F1EFE4" stroke-width="0.653416"/>
<path d="M-961.068 -528.755L-960.268 -474.06C-954.428 -75.0211 -512.475 167.1 -150.648 -30.514L-99.0766 -58.6798C240.992 -244.41 655.996 -15.0538 658.618 360.068L659.513 488.019C661.414 759.998 935.636 946.982 1202.88 858.522V858.522" stroke="#F1EFE4" stroke-width="0.653416"/>
<path d="M-979.959 -497.393L-979.158 -442.698C-973.318 -43.6593 -531.365 198.462 -169.538 0.847844L-117.967 -27.318C222.101 -213.049 637.106 16.308 639.728 391.43L640.622 519.381C642.524 791.36 916.746 978.344 1183.99 889.884V889.884" stroke="#F1EFE4" stroke-width="0.653416"/>
<path d="M-998.856 -466.027L-998.055 -411.333C-992.215 -12.2936 -550.262 229.828 -188.435 32.2136L-136.864 4.04771C203.204 -181.683 618.209 47.6737 620.831 422.796L621.725 550.747C623.626 822.726 897.848 1009.71 1165.09 921.25V921.25" stroke="#F1EFE4" stroke-width="0.653416"/>
<path d="M-1017.74 -434.666L-1016.94 -379.971C-1011.1 19.0682 -569.148 261.19 -207.32 63.5754L-155.749 35.4095C184.319 -150.321 599.323 79.0355 601.946 454.158L602.84 582.109C604.741 854.087 878.963 1041.07 1146.2 952.612V952.612" stroke="#F1EFE4" stroke-width="0.653416"/>
<path d="M-1036.64 -403.304L-1035.83 -348.609C-1029.99 50.43 -588.042 292.552 -226.214 94.9372L-174.643 66.7713C165.425 -118.959 580.429 110.397 583.052 485.52L583.946 613.471C585.847 885.449 860.069 1072.43 1127.31 983.974V983.974" stroke="#F1EFE4" stroke-width="0.653416"/>
<path d="M-1055.53 -371.938L-1054.73 -317.243C-1048.89 81.7957 -606.934 323.917 -245.107 126.303L-193.536 98.1371C146.533 -87.5935 561.537 141.763 564.159 516.885L565.054 644.836C566.955 916.815 841.177 1103.8 1108.42 1015.34V1015.34" stroke="#F1EFE4" stroke-width="0.653416"/>
<path d="M-1073.98 -341.321L-1073.18 -286.626C-1067.34 112.413 -625.384 354.535 -263.557 156.92L-211.986 128.754C128.082 -56.9763 543.087 172.38 545.709 547.503L546.603 675.453C548.504 947.432 822.726 1134.42 1089.97 1045.96V1045.96" stroke="#F1EFE4" stroke-width="0.653416"/>
<path d="M-1092.42 -310.7L-1091.62 -256.005C-1085.78 143.034 -643.825 385.156 -281.998 187.541L-230.427 159.375C109.641 -26.3552 524.646 203.001 527.268 578.124L528.163 706.075C530.064 978.053 804.286 1165.04 1071.53 1076.58V1076.58" stroke="#F1EFE4" stroke-width="0.653416"/>
<path d="M-1110.87 -280.079L-1110.07 -225.384C-1104.23 173.655 -662.274 415.777 -300.446 218.162L-248.875 189.996C91.1927 4.2659 506.197 233.622 508.82 608.745L509.714 736.696C511.615 1008.67 785.837 1195.66 1053.08 1107.2V1107.2" stroke="#F1EFE4" stroke-width="0.653416"/>
<path d="M-1129.31 -249.458L-1128.51 -194.763C-1122.67 204.276 -680.716 446.398 -318.889 248.783L-267.318 220.618C72.7506 34.887 487.755 264.244 490.377 639.366L491.272 767.317C493.173 1039.3 767.395 1226.28 1034.64 1137.82V1137.82" stroke="#F1EFE4" stroke-width="0.653416"/>
<path d="M-1147.76 -218.836L-1146.96 -164.142C-1141.12 234.897 -699.17 477.019 -337.342 279.404L-285.771 251.239C54.2967 65.5081 469.302 294.865 471.924 669.987L472.818 797.938C474.719 1069.92 748.941 1256.9 1016.18 1168.44V1168.44" stroke="#F1EFE4" stroke-width="0.653416"/>
<path d="M-1166.2 -188.215L-1165.4 -133.521C-1159.56 265.518 -717.607 507.64 -355.779 310.026L-304.208 281.86C35.8597 96.1292 450.864 325.486 453.487 700.608L454.381 828.559C456.282 1100.54 730.504 1287.52 997.744 1199.06V1199.06" stroke="#F1EFE4" stroke-width="0.653416"/>
<path d="M-1184.65 -157.594L-1183.85 -102.9C-1178.01 296.139 -736.056 538.261 -374.228 340.647L-322.657 312.481C17.4108 126.75 432.416 356.107 435.038 731.229L435.932 859.18C437.833 1131.16 712.055 1318.14 979.295 1229.68V1229.68" stroke="#F1EFE4" stroke-width="0.653416"/>
<path d="M-1203.09 -126.973L-1202.29 -72.2785C-1196.45 326.761 -754.498 568.882 -392.671 371.268L-341.1 343.102C-1.03139 157.371 413.973 386.728 416.595 761.85L417.49 889.801C419.391 1161.78 693.613 1348.76 960.853 1260.3V1260.3" stroke="#F1EFE4" stroke-width="0.653416"/>
<path d="M-1221.54 -96.3521L-1220.74 -41.6574C-1214.9 357.382 -772.946 599.503 -411.119 401.889L-359.548 373.723C-19.4801 187.992 395.525 417.349 398.147 792.471L399.041 920.422C400.942 1192.4 675.164 1379.38 942.405 1290.93V1290.93" stroke="#F1EFE4" stroke-width="0.653416"/>
<path d="M-1239.98 -65.7344L-1239.18 -11.0398C-1233.34 387.999 -791.389 630.121 -429.561 432.507L-377.99 404.341C-37.9223 218.61 377.083 447.967 379.705 823.089L380.599 951.04C382.5 1223.02 656.722 1410 923.962 1321.54V1321.54" stroke="#F1EFE4" stroke-width="0.653416"/>
<path d="M-1258.44 -35.1133L-1257.64 19.5813C-1251.8 418.62 -809.842 660.742 -448.015 463.128L-396.444 434.962C-56.3761 249.231 358.629 478.588 361.251 853.71L362.145 981.661C364.046 1253.64 638.268 1440.62 905.509 1352.16V1352.16" stroke="#F1EFE4" stroke-width="0.653416"/>
<path d="M-1276.88 -4.49222L-1276.07 50.2024C-1270.23 449.242 -828.281 691.363 -466.454 493.749L-414.883 465.583C-74.8151 279.852 340.19 509.209 342.812 884.331L343.706 1012.28C345.607 1284.26 619.829 1471.24 887.07 1382.79V1382.79" stroke="#F1EFE4" stroke-width="0.653416"/>
<path d="M-1295.32 26.1284L-1294.52 80.823C-1288.68 479.862 -846.727 721.984 -484.9 524.369L-433.329 496.203C-93.2604 310.473 321.744 539.829 324.366 914.952L325.261 1042.9C327.162 1314.88 601.384 1501.87 868.624 1413.41V1413.41" stroke="#F1EFE4" stroke-width="0.653416"/>
<path d="M-1313.77 56.7495L-1312.97 111.444C-1307.13 510.483 -865.172 752.605 -503.345 554.99L-451.774 526.825C-111.706 341.094 303.299 570.451 305.921 945.573L306.815 1073.52C308.716 1345.5 582.938 1532.49 850.179 1444.03V1444.03" stroke="#F1EFE4" stroke-width="0.653416"/>
</g>
<mask id="mask2_419_3947" style="mask-type:alpha" maskUnits="userSpaceOnUse" x="-246" y="278" width="999" height="279">
<path d="M752 279.515H-245C-245 279.515 -130.463 305.802 83.5818 315.19C297.627 324.578 625.298 542.792 752 555.523V279.515Z" fill="#D9D9D9" stroke="black" stroke-width="2"/>
</mask>
<g mask="url(#mask2_419_3947)">
<rect width="1276.76" height="1276.77" transform="matrix(1 0 0 -1 -365.165 1193.91)" fill="black"/>
<path d="M-791.034 1368.55L-790.233 1313.85C-784.393 914.813 -342.44 672.691 19.3871 870.305L70.9581 898.471C411.026 1084.2 826.031 854.845 828.653 479.723L829.547 351.772C831.449 79.7934 1105.67 -107.19 1372.91 -18.731V-18.731" stroke="#F1EFE4" stroke-width="0.653416"/>
<path d="M-809.924 1337.18L-809.124 1282.49C-803.284 883.447 -361.331 641.326 0.496483 838.94L52.0675 867.106C392.136 1052.84 807.14 823.48 809.762 448.358L810.657 320.407C812.558 48.4282 1086.78 -138.555 1354.02 -50.0962V-50.0962" stroke="#F1EFE4" stroke-width="0.653416"/>
<path d="M-828.816 1305.82L-828.016 1251.12C-822.176 852.085 -380.223 609.963 -18.3956 807.578L33.1754 835.744C373.244 1021.47 788.248 792.118 790.87 416.996L791.765 289.045C793.666 17.0659 1067.89 -169.918 1335.13 -81.4585V-81.4585" stroke="#F1EFE4" stroke-width="0.653416"/>
<path d="M-847.71 1274.46L-846.91 1219.76C-841.07 820.723 -399.117 578.602 -37.2896 776.216L14.2814 804.382C354.349 990.113 769.354 760.756 771.976 385.634L772.871 257.683C774.772 -14.296 1048.99 -201.28 1316.23 -112.82V-112.82" stroke="#F1EFE4" stroke-width="0.653416"/>
<path d="M-866.601 1243.09L-865.8 1188.4C-859.96 789.361 -418.007 547.239 -56.1798 744.853L-4.60878 773.019C335.459 958.75 750.464 729.393 753.086 354.271L753.981 226.32C755.882 -45.6587 1030.1 -232.642 1297.34 -144.183V-144.183" stroke="#F1EFE4" stroke-width="0.653416"/>
<path d="M-885.495 1211.73L-884.694 1157.03C-878.854 757.996 -436.901 515.874 -75.0738 713.489L-23.5028 741.654C316.565 927.385 731.57 698.028 734.192 322.906L735.087 194.955C736.988 -77.0235 1011.21 -264.007 1278.45 -175.548V-175.548" stroke="#F1EFE4" stroke-width="0.653416"/>
<path d="M-904.392 1180.37L-903.591 1125.67C-897.751 726.634 -455.798 484.513 -93.9708 682.127L-42.3998 710.293C297.668 896.024 712.673 666.667 715.295 291.545L716.19 163.594C718.091 -108.385 992.313 -295.368 1259.55 -206.909V-206.909" stroke="#F1EFE4" stroke-width="0.653416"/>
<path d="M-923.277 1149.01L-922.477 1094.31C-916.637 695.272 -474.684 453.151 -112.857 650.765L-61.2855 678.931C278.783 864.661 693.787 635.305 696.409 260.183L697.304 132.232C699.205 -139.747 973.427 -326.731 1240.67 -238.271V-238.271" stroke="#F1EFE4" stroke-width="0.653416"/>
<path d="M-942.181 1117.64L-941.381 1062.95C-935.54 663.906 -493.588 421.785 -131.76 619.399L-80.1893 647.565C259.879 833.296 674.884 603.939 677.506 228.817L678.4 100.866C680.301 -171.113 954.523 -358.097 1221.76 -269.637V-269.637" stroke="#F1EFE4" stroke-width="0.653416"/>
<path d="M-961.068 1086.28L-960.268 1031.58C-954.428 632.545 -512.475 390.423 -150.648 588.038L-99.0766 616.204C240.992 801.934 655.996 572.578 658.618 197.455L659.513 69.5045C661.414 -202.474 935.636 -389.458 1202.88 -300.999V-300.999" stroke="#F1EFE4" stroke-width="0.653416"/>
<path d="M-979.959 1054.92L-979.158 1000.22C-973.318 601.183 -531.365 359.061 -169.538 556.676L-117.967 584.841C222.101 770.572 637.106 541.215 639.728 166.093L640.622 38.1422C642.524 -233.836 916.746 -420.82 1183.99 -332.361V-332.361" stroke="#F1EFE4" stroke-width="0.653416"/>
<path d="M-998.856 1023.55L-998.055 968.857C-992.215 569.818 -550.262 327.696 -188.435 525.31L-136.864 553.476C203.204 739.207 618.209 509.85 620.831 134.728L621.725 6.77698C623.626 -265.202 897.848 -452.185 1165.09 -363.726V-363.726" stroke="#F1EFE4" stroke-width="0.653416"/>
<path d="M-1017.74 992.189L-1016.94 937.495C-1011.1 538.456 -569.148 296.334 -207.32 493.949L-155.749 522.114C184.319 707.845 599.323 478.488 601.946 103.366L602.84 -24.5848C604.741 -296.564 878.963 -483.547 1146.2 -395.088V-395.088" stroke="#F1EFE4" stroke-width="0.653416"/>
<path d="M-1036.64 960.828L-1035.83 906.133C-1029.99 507.094 -588.042 264.972 -226.214 462.587L-174.643 490.753C165.425 676.483 580.429 447.127 583.052 72.0043L583.946 -55.9467C585.847 -327.925 860.069 -514.909 1127.31 -426.45V-426.45" stroke="#F1EFE4" stroke-width="0.653416"/>
<path d="M-1055.53 929.462L-1054.73 874.767C-1048.89 475.728 -606.934 233.607 -245.107 431.221L-193.536 459.387C146.533 645.117 561.537 415.761 564.159 40.6386L565.054 -87.3124C566.955 -359.291 841.177 -546.275 1108.42 -457.815V-457.815" stroke="#F1EFE4" stroke-width="0.653416"/>
<path d="M-1073.98 898.845L-1073.18 844.15C-1067.34 445.111 -625.384 202.989 -263.557 400.604L-211.986 428.77C128.082 614.5 543.087 385.144 545.709 10.0214L546.603 -117.93C548.504 -389.908 822.726 -576.892 1089.97 -488.433V-488.433" stroke="#F1EFE4" stroke-width="0.653416"/>
<path d="M-1092.42 868.223L-1091.62 813.529C-1085.78 414.489 -643.825 172.368 -281.998 369.982L-230.427 398.148C109.641 583.879 524.646 354.522 527.268 -20.6002L528.163 -148.551C530.064 -420.53 804.286 -607.513 1071.53 -519.054V-519.054" stroke="#F1EFE4" stroke-width="0.653416"/>
<path d="M-1110.87 837.603L-1110.07 782.908C-1104.23 383.869 -662.274 141.747 -300.446 339.362L-248.875 367.527C91.1927 553.258 506.197 323.902 508.82 -51.2208L509.714 -179.172C511.615 -451.15 785.837 -638.134 1053.08 -549.675V-549.675" stroke="#F1EFE4" stroke-width="0.653416"/>
<path d="M-1129.31 806.981L-1128.51 752.286C-1122.67 353.247 -680.716 111.126 -318.889 308.74L-267.318 336.906C72.7506 522.636 487.755 293.28 490.377 -81.8424L491.272 -209.793C493.173 -481.772 767.395 -668.756 1034.64 -580.296V-580.296" stroke="#F1EFE4" stroke-width="0.653416"/>
<path d="M-1147.76 776.36L-1146.96 721.666C-1141.12 322.627 -699.17 80.505 -337.342 278.119L-285.771 306.285C54.2967 492.016 469.302 262.659 471.924 -112.463L472.818 -240.414C474.719 -512.393 748.941 -699.376 1016.18 -610.917V-610.917" stroke="#F1EFE4" stroke-width="0.653416"/>
<path d="M-1166.2 745.739L-1165.4 691.044C-1159.56 292.005 -717.607 49.8834 -355.779 247.498L-304.208 275.664C35.8597 461.394 450.864 232.038 453.487 -143.085L454.381 -271.036C456.282 -543.014 730.504 -729.998 997.744 -641.539V-641.539" stroke="#F1EFE4" stroke-width="0.653416"/>
<path d="M-1184.65 715.118L-1183.85 660.424C-1178.01 261.384 -736.056 19.2628 -374.228 216.877L-322.657 245.043C17.4108 430.774 432.416 201.417 435.038 -173.705L435.932 -301.656C437.833 -573.635 712.055 -760.618 979.295 -672.159V-672.159" stroke="#F1EFE4" stroke-width="0.653416"/>
<path d="M-1203.09 684.497L-1202.29 629.802C-1196.45 230.763 -754.498 -11.3583 -392.671 186.256L-341.1 214.422C-1.03139 400.153 413.973 170.796 416.595 -204.326L417.49 -332.277C419.391 -604.256 693.613 -791.24 960.853 -702.78V-702.78" stroke="#F1EFE4" stroke-width="0.653416"/>
<path d="M-1221.54 653.876L-1220.74 599.181C-1214.9 200.142 -772.946 -41.9799 -411.119 155.635L-359.548 183.8C-19.4801 369.531 395.525 140.174 398.147 -234.948L399.041 -362.899C400.942 -634.877 675.164 -821.861 942.405 -733.402V-733.402" stroke="#F1EFE4" stroke-width="0.653416"/>
<path d="M-1239.98 623.258L-1239.18 568.564C-1233.34 169.525 -791.389 -72.5971 -429.561 125.017L-377.99 153.183C-37.9223 338.914 377.083 109.557 379.705 -265.565L380.599 -393.516C382.5 -665.495 656.722 -852.478 923.962 -764.019V-764.019" stroke="#F1EFE4" stroke-width="0.653416"/>
<path d="M-1258.44 592.637L-1257.64 537.943C-1251.8 138.903 -809.842 -103.218 -448.015 94.3963L-396.444 122.562C-56.3761 308.293 358.629 78.9362 361.251 -296.186L362.145 -424.137C364.046 -696.116 638.268 -883.099 905.509 -794.64V-794.64" stroke="#F1EFE4" stroke-width="0.653416"/>
<path d="M-1276.88 562.016L-1276.07 507.322C-1270.23 108.282 -828.281 -133.839 -466.454 63.7752L-414.883 91.9411C-74.8151 277.672 340.19 48.3151 342.812 -326.807L343.706 -454.758C345.607 -726.737 619.829 -913.721 887.07 -825.261V-825.261" stroke="#F1EFE4" stroke-width="0.653416"/>
<path d="M-1295.32 531.395L-1294.52 476.7C-1288.68 77.6613 -846.727 -164.46 -484.9 33.1541L-433.329 61.32C-93.2604 247.051 321.744 17.694 324.366 -357.428L325.261 -485.379C327.162 -757.358 601.384 -944.342 868.624 -855.882V-855.882" stroke="#F1EFE4" stroke-width="0.653416"/>
<path d="M-1313.77 500.774L-1312.97 446.079C-1307.13 47.0402 -865.172 -195.081 -503.345 2.53302L-451.774 30.6989C-111.706 216.429 303.299 -12.9271 305.921 -388.049L306.815 -516C308.716 -787.979 582.938 -974.963 850.179 -886.503V-886.503" stroke="#F1EFE4" stroke-width="0.653416"/>
</g>
</svg>
